<?xml version="1.0" standalone="no"?>
<!DOCTYPE svg PUBLIC "-//W3C//DTD SVG 20010904//EN"
 "http://www.w3.org/TR/2001/REC-SVG-20010904/DTD/svg10.dtd">
<svg version="1.0" xmlns="http://www.w3.org/2000/svg"
 width="234.000000pt" height="274.000000pt" viewBox="0 0 234.000000 274.000000"
 preserveAspectRatio="xMidYMid meet">

<g transform="translate(0.000000,274.000000) scale(0.100000,-0.100000)"
fill="#000000" stroke="none">
<path d="M1080 2649 c-422 -35 -811 -365 -934 -791 -54 -186 -57 -366 -11
-548 83 -322 253 -557 518 -712 351 -205 800 -193 1137 33 98 66 245 213 308
309 119 181 192 415 192 615 0 267 -117 553 -308 757 -234 249 -549 367 -902
337z m277 -59 c337 -46 663 -306 796 -637 232 -581 -82 -1235 -675 -1407 -224
-65 -467 -50 -691 44 -234 97 -445 318 -545 568 -57 144 -74 223 -79 372 -4
110 -1 153 15 230 86 413 406 731 832 826 70 15 245 17 347 4z"/>
<path d="M996 2428 c-11 -43 -6 -65 23 -102 25 -32 28 -41 20 -68 -7 -25 -6
-29 4 -19 20 20 15 140 -8 179 -23 38 -31 40 -39 10z"/>
<path d="M1119 2416 c-35 -30 -49 -58 -49 -95 0 -35 6 -38 36 -16 28 19 46 65
42 103 l-3 31 -26 -23z"/>
<path d="M1281 2376 c-26 -27 -25 -53 2 -70 23 -15 37 6 37 57 0 43 -8 46 -39
13z"/>
<path d="M880 2354 c0 -30 8 -44 53 -87 47 -46 55 -60 66 -114 13 -58 12 -64
-10 -107 -32 -65 -46 -75 -59 -41 -5 14 -10 47 -10 72 0 36 5 51 25 69 14 13
25 30 25 37 0 25 -35 61 -53 54 -14 -5 -17 -22 -17 -98 0 -51 -2 -90 -5 -87
-3 3 -14 62 -24 131 -11 78 -25 137 -37 154 l-18 28 -12 -30 c-18 -42 -18 -46
15 -96 19 -30 31 -63 36 -104 4 -33 15 -78 24 -100 33 -75 33 -92 5 -189 -14
-50 -30 -95 -34 -100 -20 -21 -28 94 -16 242 8 92 7 104 -9 122 -10 11 -26 20
-35 20 -25 0 -14 -60 15 -85 20 -17 23 -25 16 -55 l-7 -35 -12 36 c-16 46 -56
83 -108 97 -54 15 -54 15 -54 -8 0 -30 36 -60 71 -60 29 0 31 2 25 28 -7 25
-6 25 17 -8 14 -20 30 -54 36 -75 12 -44 15 -128 4 -138 -3 -4 -17 11 -31 34
-30 50 -38 45 -16 -10 19 -49 16 -56 -20 -40 -19 9 -26 20 -26 40 0 37 -47 64
-96 54 -19 -3 -34 -10 -34 -14 0 -15 52 -61 69 -61 51 0 149 -79 182 -147 21
-44 62 -193 55 -200 -6 -6 -42 56 -71 120 -14 32 -29 57 -35 57 -14 0 -13 -18
5 -76 20 -65 20 -62 -22 -54 -65 11 -80 25 -88 76 -11 76 -26 98 -19 29 l6
-60 -23 22 c-12 12 -31 52 -41 90 l-18 68 5 -55 c4 -36 16 -72 35 -103 17 -27
30 -53 30 -58 0 -19 -135 -9 -207 16 -88 30 -153 42 -153 27 0 -17 52 -62 78
-69 13 -3 29 0 35 6 13 13 67 15 67 2 0 -5 -13 -14 -30 -21 -16 -7 -30 -16
-30 -21 0 -12 1 -12 55 12 43 19 59 21 149 15 136 -9 174 -19 210 -55 l31 -31
-78 0 c-60 0 -91 6 -137 25 -100 42 -147 32 -255 -54 l-69 -55 34 -8 c50 -10
65 -3 85 43 13 27 31 47 56 60 48 24 53 24 119 -7 l55 -26 -23 -18 c-12 -10
-44 -26 -70 -36 -51 -19 -72 -38 -72 -66 0 -29 22 -21 65 26 46 50 89 66 180
66 l60 -1 -42 -40 c-38 -35 -43 -45 -43 -82 0 -23 4 -48 9 -55 14 -23 51 34
51 80 0 52 38 93 78 84 105 -26 183 -192 168 -363 -3 -41 -10 -82 -16 -92 -13
-26 -68 -31 -331 -31 -146 0 -229 -4 -229 -10 0 -6 95 -10 263 -11 278 0 288
-3 125 -39 -81 -18 -178 -52 -178 -64 0 -2 15 0 33 5 17 5 70 12 117 16 83 6
85 5 69 -13 -35 -41 -30 -46 16 -14 52 35 145 75 145 62 0 -5 -12 -19 -26 -33
-14 -13 -35 -37 -46 -52 l-21 -29 41 21 c22 11 64 34 92 51 28 16 57 30 64 30
8 0 28 -16 45 -35 17 -19 33 -35 36 -35 4 0 5 17 4 37 -3 37 -3 38 28 36 41
-4 129 -42 188 -83 25 -17 45 -27 45 -23 0 18 -62 82 -114 118 -31 21 -54 41
-51 43 3 3 26 -4 53 -15 26 -12 76 -33 112 -47 36 -14 85 -39 110 -56 24 -16
46 -27 49 -24 2 2 -6 18 -18 35 -13 17 -21 32 -19 34 1 2 34 -3 73 -10 38 -8
72 -11 75 -9 10 11 -65 43 -147 64 -86 22 -44 30 147 30 120 0 190 4 190 10 0
6 -53 10 -139 10 -76 0 -159 3 -185 6 l-47 7 6 52 c6 48 5 54 -19 72 -30 24
-31 30 -12 52 11 13 12 29 5 76 -8 51 -15 65 -45 92 -31 27 -35 36 -29 62 9
43 -10 73 -43 69 -26 -3 -27 -6 -25 -54 2 -45 -1 -52 -22 -62 -36 -17 -54 -52
-61 -118 -6 -52 -4 -61 15 -78 l21 -19 -22 -24 c-19 -21 -21 -28 -11 -61 5
-20 14 -45 18 -54 6 -15 2 -18 -23 -18 -49 0 -78 19 -105 69 -44 80 -61 164
-61 301 -1 110 2 131 22 177 33 71 58 91 164 129 51 18 120 44 153 58 51 22
75 26 160 26 78 0 106 -4 125 -17 36 -24 40 -34 34 -74 -5 -29 -1 -41 21 -67
32 -39 45 -34 45 17 0 27 -9 51 -31 81 -39 54 -29 70 34 51 125 -37 144 -41
176 -36 l34 7 -29 24 c-56 47 -76 54 -125 42 -44 -10 -191 -4 -259 10 l-34 8
44 26 c74 42 158 58 232 43 31 -6 45 -3 84 20 56 33 49 45 -32 52 -52 4 -64 2
-96 -21 -41 -28 -113 -50 -129 -41 -5 4 -40 -11 -77 -33 -37 -22 -91 -45 -121
-51 -30 -6 -74 -20 -98 -31 -51 -23 -193 -63 -199 -57 -2 2 36 34 85 70 63 46
105 87 141 136 77 105 94 115 218 119 81 3 107 1 120 -11 26 -22 69 -29 112
-17 52 14 57 26 18 46 -37 19 -81 21 -190 8 l-76 -10 26 31 c15 17 38 39 51
49 23 18 23 18 11 -4 -10 -18 -9 -24 1 -31 33 -20 79 1 135 63 l39 43 -29 3
c-15 2 -45 -4 -67 -12 l-39 -16 20 37 c20 38 26 63 14 63 -4 0 -22 -9 -40 -21
-34 -21 -51 -56 -40 -84 3 -8 1 -15 -3 -15 -5 0 -11 6 -14 14 -7 18 -40 10
-63 -15 -13 -15 -15 -22 -6 -31 9 -9 2 -18 -31 -40 -23 -15 -48 -28 -55 -28
-19 0 8 47 57 97 39 40 47 73 17 73 -22 0 -56 -31 -56 -51 0 -31 -34 -89 -84
-144 l-46 -50 5 65 c10 117 14 129 44 145 46 23 68 105 28 105 -30 0 -71 -103
-87 -220 -15 -106 -27 -146 -55 -177 l-24 -28 -1 52 c0 28 -4 55 -10 58 -10 6
-16 -13 -24 -90 -5 -35 -13 -55 -29 -67 -50 -39 -57 -17 -32 100 8 38 23 91
33 118 11 27 25 75 32 107 13 67 66 131 115 142 115 26 135 38 135 81 0 13 -2
24 -4 24 -3 0 -32 -12 -65 -26 -48 -21 -59 -30 -50 -40 8 -10 2 -15 -27 -23
-20 -6 -50 -23 -66 -37 l-28 -28 0 30 c0 19 14 49 40 83 57 76 53 155 -5 97
-19 -19 -25 -36 -25 -66 0 -23 -7 -55 -16 -72 -10 -19 -14 -44 -11 -64 14 -87
-30 -10 -58 101 -12 47 -30 51 -59 12 -25 -34 -13 -62 27 -62 35 1 73 -76 64
-130 -8 -48 -37 -125 -48 -125 -4 0 -14 18 -20 41 -11 34 -10 48 4 87 22 60
22 55 -14 97 -67 76 -74 39 -27 -145 l31 -124 -22 -110 c-24 -118 -36 -148
-109 -259 -27 -41 -54 -88 -61 -105 -8 -18 -19 -32 -26 -32 -7 0 -31 37 -54
83 -55 111 -54 137 9 261 53 104 61 144 33 172 -17 17 -18 15 -24 -27 -7 -43
-66 -156 -77 -145 -2 3 1 40 7 83 10 63 27 107 89 233 42 85 81 157 86 159 26
11 57 53 54 74 -8 54 -72 16 -84 -50 -4 -21 -14 -53 -21 -72 -22 -51 -33 -23
-33 81 0 66 -4 90 -16 103 -20 20 -21 18 -33 -31 l-9 -39 -1 48 c-1 42 -4 49
-33 67 -44 27 -48 26 -48 -16z m492 -1253 c2 -17 1 -28 -4 -25 -8 5 -12 54 -4
54 2 0 6 -13 8 -29z m131 -32 c-6 -6 -7 3 -4 23 4 28 6 29 9 9 2 -13 0 -27 -5
-32z m-23 -23 c0 -2 -8 -10 -17 -17 -16 -13 -17 -12 -4 4 13 16 21 21 21 13z
m27 -86 c11 0 13 -8 8 -32 -8 -41 -29 -58 -70 -58 -28 0 -33 4 -43 39 -7 21
-12 41 -12 44 0 9 42 15 74 11 16 -2 35 -4 43 -4z m-7 -120 c0 -12 -8 -12 -35
0 -18 8 -17 9 8 9 15 1 27 -3 27 -9z"/>
<path d="M1212 2347 c-26 -28 -41 -110 -22 -122 22 -13 60 40 60 83 0 55 -12
67 -38 39z"/>
<path d="M1507 2334 c-34 -23 -67 -74 -67 -104 0 -22 40 -8 69 25 57 66 56
119 -2 79z"/>
<path d="M1321 2307 c-16 -20 -23 -70 -12 -86 15 -22 39 -5 47 33 10 56 -8 84
-35 53z"/>
<path d="M700 2262 c0 -46 39 -95 83 -105 78 -19 69 34 -15 91 -69 46 -68 46
-68 14z"/>
<path d="M1629 2189 c-32 -35 -41 -89 -14 -89 29 0 65 47 65 85 0 43 -13 44
-51 4z"/>
<path d="M610 2195 c0 -20 45 -77 70 -90 37 -19 37 -19 50 5 16 30 -4 58 -51
70 -22 6 -47 14 -55 17 -8 3 -14 2 -14 -2z"/>
<path d="M1742 2160 c-41 -25 -60 -63 -42 -84 17 -22 48 -3 66 41 23 54 16 67
-24 43z"/>
<path d="M1443 2128 c-48 -23 -35 -70 14 -52 20 7 28 16 28 33 0 28 -12 34
-42 19z"/>
<path d="M505 2072 c9 -38 32 -60 72 -71 46 -13 65 -5 61 28 -3 28 -45 54
-107 65 -32 6 -33 5 -26 -22z"/>
<path d="M1120 2056 c0 -52 26 -91 53 -81 26 10 21 58 -9 94 -14 17 -30 31
-35 31 -5 0 -9 -20 -9 -44z"/>
<path d="M1526 2038 c-20 -28 -20 -57 -1 -64 24 -10 45 15 45 52 0 40 -21 46
-44 12z"/>
<path d="M1398 2039 c-33 -18 -34 -109 -3 -109 8 0 21 13 30 30 29 55 13 101
-27 79z"/>
<path d="M674 1986 c-8 -20 10 -49 41 -66 22 -12 28 -12 42 3 13 13 15 23 7
44 -8 23 -16 29 -47 31 -26 2 -39 -1 -43 -12z"/>
<path d="M448 1985 c-12 -12 29 -62 56 -69 28 -7 98 14 103 31 2 6 -5 16 -16
22 -25 14 -134 26 -143 16z"/>
<path d="M630 1982 c0 -5 9 -17 20 -27 22 -20 26 -14 10 16 -11 19 -30 26 -30
11z"/>
<path d="M1040 1985 c0 -4 7 -20 16 -36 17 -34 66 -59 114 -59 39 0 39 21 0
54 -37 30 -130 60 -130 41z"/>
<path d="M340 1890 c0 -11 20 -51 38 -78 5 -7 25 -17 46 -22 35 -8 36 -7 36
21 0 31 -18 47 -82 74 -24 9 -38 11 -38 5z"/>
<path d="M1732 1890 c-31 -13 -49 -54 -32 -75 18 -22 33 -19 64 14 44 46 24
84 -32 61z"/>
<path d="M1600 1868 c-44 -30 -58 -54 -43 -69 18 -18 71 8 94 45 10 17 19 34
19 39 0 15 -38 6 -70 -15z"/>
<path d="M1813 1850 c-36 -21 -41 -41 -18 -60 35 -29 103 31 74 66 -15 18 -18
18 -56 -6z"/>
<path d="M492 1841 c-20 -12 -11 -41 19 -63 29 -22 61 -14 73 19 14 35 -56 67
-92 44z"/>
<path d="M665 1795 c-5 -2 -22 -6 -37 -9 -32 -7 -36 -26 -10 -49 35 -32 92
-16 92 25 0 18 -27 37 -45 33z"/>
<path d="M310 1767 c0 -46 109 -74 134 -35 16 27 -4 39 -73 45 -51 5 -61 3
-61 -10z"/>
<path d="M1560 1761 c-43 -23 -52 -51 -17 -51 53 0 117 34 117 62 0 15 -65 8
-100 -11z"/>
<path d="M477 1724 c-16 -16 35 -74 64 -74 14 0 19 7 19 28 0 15 -5 33 -12 40
-13 13 -60 16 -71 6z"/>
<path d="M1850 1720 c-26 -16 1 -45 47 -48 47 -4 74 18 53 43 -14 17 -77 20
-100 5z"/>
<path d="M289 1682 c11 -21 39 -46 68 -61 19 -10 30 -8 60 8 21 11 47 23 58
26 25 8 -101 44 -158 44 -33 1 -37 -1 -28 -17z"/>
<path d="M450 1608 c0 -25 18 -40 56 -48 50 -12 75 -12 94 0 12 7 11 13 -10
34 -20 22 -32 26 -82 26 -40 0 -58 -4 -58 -12z"/>
<path d="M1870 1581 c0 -15 49 -61 75 -71 32 -12 82 -13 89 -2 7 12 -43 58
-77 71 -34 13 -87 14 -87 2z"/>
<path d="M292 1466 c-38 -12 -37 -24 5 -48 27 -16 34 -17 64 -4 47 20 52 27
32 48 -18 20 -50 21 -101 4z"/>
<path d="M467 1399 c-21 -13 -50 -66 -42 -79 3 -6 2 -10 -4 -10 -9 0 -51 -70
-51 -85 0 -10 42 -5 69 10 33 17 59 73 37 81 -9 4 -5 14 16 35 41 41 23 76
-25 48z"/>
<path d="M648 1339 c-20 -11 -24 -54 -7 -65 8 -4 8 -9 0 -17 -15 -15 -14 -59
3 -82 13 -18 14 -17 30 13 20 38 21 71 2 78 -12 4 -11 9 5 25 36 36 9 73 -33
48z"/>
<path d="M567 1292 c-17 -19 -24 -92 -9 -92 9 0 44 36 56 57 7 14 -10 53 -23
53 -4 0 -15 -8 -24 -18z"/>
<path d="M875 398 c-3 -8 -4 -74 -3 -148 3 -119 5 -135 21 -138 13 -3 17 4 17
31 0 20 7 41 19 51 18 16 20 15 55 -34 33 -46 66 -66 66 -39 0 6 -18 34 -40
61 l-40 51 37 33 c30 25 35 35 26 45 -10 10 -23 2 -65 -37 l-53 -49 -5 89 c-3
59 -9 91 -17 94 -7 2 -15 -3 -18 -10z"/>
<path d="M1540 260 c0 -139 1 -151 18 -148 14 3 17 16 20 73 3 76 21 105 66
105 37 0 46 -19 46 -102 0 -73 1 -78 21 -78 20 0 21 4 18 86 -4 76 -7 88 -28
105 -28 23 -69 25 -98 4 -22 -15 -22 -15 -25 42 -2 46 -7 59 -20 61 -17 3 -18
-9 -18 -148z"/>
<path d="M764 389 c-3 -6 -2 -15 4 -21 13 -13 32 -2 32 18 0 16 -26 19 -36 3z"/>
<path d="M525 307 c-3 -7 12 -53 33 -102 53 -124 67 -125 115 -8 21 49 37 97
37 107 0 38 -26 6 -55 -67 -17 -42 -33 -78 -36 -81 -3 -3 -20 32 -38 79 -31
81 -46 100 -56 72z"/>
<path d="M770 216 c0 -89 3 -106 15 -106 13 0 15 16 13 102 -2 70 -7 103 -15
106 -10 3 -13 -22 -13 -102z"/>
<path d="M1118 309 c-34 -19 -19 -30 30 -23 38 5 52 2 65 -11 30 -29 21 -45
-25 -45 -68 0 -93 -18 -93 -65 0 -33 4 -42 27 -53 22 -10 34 -10 67 1 27 10
41 11 44 4 2 -6 11 -8 20 -4 13 5 17 19 17 66 0 67 -12 108 -38 127 -20 16
-90 18 -114 3z m112 -129 c0 -29 -55 -55 -86 -41 -49 22 -21 61 43 61 36 0 43
-3 43 -20z"/>
<path d="M1352 304 c-30 -21 -30 -69 1 -88 12 -7 39 -19 60 -26 27 -8 37 -17
35 -28 -3 -14 -15 -17 -60 -17 -61 0 -76 -6 -56 -23 26 -21 110 -19 132 4 36
36 9 88 -52 100 -42 9 -59 29 -41 50 10 12 24 15 56 10 33 -4 43 -2 43 8 0 29
-81 36 -118 10z"/>
</g>
</svg>
